<svg xmlns="http://www.w3.org/2000/svg" xmlns:xlink="http://www.w3.org/1999/xlink" width="2000" zoomAndPan="magnify" viewBox="0 0 1500 1499.999933" height="2000" preserveAspectRatio="xMidYMid meet" version="1.0"><defs><g/></defs><g fill="#0f172a" fill-opacity="1"><g transform="translate(286.525849, 1289.624869)"><g><path d="M 471.765625 18.09375 C 388.359375 18.09375 307.71875 6.789062 229.84375 -15.8125 C 151.976562 -38.425781 89.429688 -67.820312 42.203125 -104 L 125.09375 -287.875 C 170.3125 -254.71875 224.066406 -228.09375 286.359375 -208 C 348.660156 -187.90625 410.960938 -177.859375 473.265625 -177.859375 C 542.597656 -177.859375 593.84375 -188.15625 627 -208.75 C 660.15625 -229.34375 676.734375 -256.722656 676.734375 -290.890625 C 676.734375 -316.015625 666.9375 -336.863281 647.34375 -353.4375 C 627.75 -370.019531 602.628906 -383.332031 571.984375 -393.375 C 541.335938 -403.425781 499.890625 -414.484375 447.640625 -426.546875 C 367.253906 -445.640625 301.4375 -464.726562 250.1875 -483.8125 C 198.945312 -502.90625 154.988281 -533.550781 118.3125 -575.75 C 81.632812 -617.957031 63.296875 -674.226562 63.296875 -744.5625 C 63.296875 -805.851562 79.875 -861.367188 113.03125 -911.109375 C 146.195312 -960.847656 196.1875 -1000.285156 263 -1029.421875 C 329.820312 -1058.566406 411.46875 -1073.140625 507.9375 -1073.140625 C 575.257812 -1073.140625 641.070312 -1065.097656 705.375 -1049.015625 C 769.6875 -1032.941406 825.957031 -1009.832031 874.1875 -979.6875 L 798.828125 -794.296875 C 701.359375 -849.566406 603.890625 -877.203125 506.421875 -877.203125 C 438.097656 -877.203125 387.609375 -866.148438 354.953125 -844.046875 C 322.296875 -821.941406 305.96875 -792.800781 305.96875 -756.625 C 305.96875 -720.445312 324.804688 -693.566406 362.484375 -675.984375 C 400.160156 -658.398438 457.6875 -641.066406 535.0625 -623.984375 C 615.445312 -604.890625 681.257812 -585.796875 732.5 -566.703125 C 783.75 -547.617188 827.710938 -517.476562 864.390625 -476.28125 C 901.066406 -435.082031 919.40625 -379.316406 919.40625 -308.984375 C 919.40625 -248.691406 902.570312 -193.675781 868.90625 -143.9375 C 835.25 -94.195312 784.757812 -54.753906 717.4375 -25.609375 C 650.113281 3.523438 568.222656 18.09375 471.765625 18.09375 Z M 471.765625 18.09375 "/></g></g></g></svg>